{
  "source": "C:\\Users\\Peter\\Desktop\\stuff\\MIUN\\quantitative_research\\video_compression\\videos\\BVI-HD\\BVI-HD_CDVL_videos\\ORIG\\Bookcase_1920x1080_60fps.mp4",
  "output": "C:\\Users\\Peter\\Desktop\\stuff\\MIUN\\quantitative_research\\video_compression\\compressed_videos\\BVI-HD\\vp9\\8\\Bookcase_1920x1080_60fps_vp9.webm",
  "codec": "vp9",
  "ok": "Input #0, mov,mp4,m4a,3gp,3g2,mj2, from 'C:\\Users\\Peter\\Desktop\\stuff\\MIUN\\quantitative_research\\video_compression\\videos\\BVI-HD\\BVI-HD_CDVL_videos\\ORIG\\Bookcase_1920x1080_60fps.mp4':\n  Metadata:\n    major_brand     : isom\n    minor_version   : 512\n    compatible_brands: isomiso2avc1mp41\n    encoder         : Lavf54.28.101\n  Duration: 00:00:05.00, start: 0.000000, bitrate: 336321 kb/s\n  Stream #0:0[0x1](und): Video: h264 (High 4:4:4 Predictive) (avc1 / 0x31637661), yuv420p(progressive), 1920x1080, 336316 kb/s, 60 fps, 60 tbr, 60 tbn (default)\n    Metadata:\n      handler_name    : VideoHandler\n      vendor_id       : [0][0][0][0]\n[out#0/webm @ 0000018b659d1580] Codec AVOption b:a (set bitrate (in bits/s)) has not been used for any stream. The most likely reason is either wrong type (e.g. a video option with no video streams) or that it is a private option of some decoder which was not actually used for any stream.\nStream mapping:\n  Stream #0:0 -> #0:0 (h264 (native) -> vp9 (libvpx-vp9))\nPress [q] to stop, [?] for help\n[libvpx-vp9 @ 0000018b65fa05c0] v1.15.2-100-g40561f514\nOutput #0, webm, to 'C:\\Users\\Peter\\Desktop\\stuff\\MIUN\\quantitative_research\\video_compression\\compressed_videos\\BVI-HD\\vp9\\8\\Bookcase_1920x1080_60fps_vp9.webm':\n  Metadata:\n    major_brand     : isom\n    minor_version   : 512\n    compatible_brands: isomiso2avc1mp41\n    encoder         : Lavf62.3.100\n  Stream #0:0(und): Video: vp9, yuv420p(tv, progressive), 1920x1080, q=2-31, 8000 kb/s, 60 fps, 1k tbn (default)\n    Metadata:\n      encoder         : Lavc62.11.100 libvpx-vp9\n      handler_name    : VideoHandler\n      vendor_id       : [0][0][0][0]\n    Side data:\n      cpb: bitrate max/min/avg: 0/0/0 buffer size: 8000000 vbv_delay: N/A\nframe=    0 fps=0.0 q=0.0 size=       0KiB time=N/A bitrate=N/A speed=N/A elapsed=0:00:00.53    \nframe=    5 fps=4.3 q=31.0 size=       1KiB time=00:00:00.08 bitrate=  60.8kbits/s speed=0.0713x elapsed=0:00:01.16    \nframe=   11 fps=6.5 q=26.0 size=       1KiB time=00:00:00.18 bitrate=  27.6kbits/s speed=0.108x elapsed=0:00:01.69    \nframe=   16 fps=7.1 q=27.0 size=       1KiB time=00:00:00.26 bitrate=  19.0kbits/s speed=0.119x elapsed=0:00:02.24    \nframe=   22 fps=7.9 q=27.0 size=       1KiB time=00:00:00.36 bitrate=  13.8kbits/s speed=0.131x elapsed=0:00:02.79    \nframe=   27 fps=8.0 q=23.0 size=       1KiB time=00:00:00.45 bitrate=  11.3kbits/s speed=0.134x elapsed=0:00:03.36    \nframe=   32 fps=8.2 q=27.0 size=       1KiB time=00:00:00.53 bitrate=   9.5kbits/s speed=0.136x elapsed=0:00:03.91    \nframe=   36 fps=8.0 q=26.0 size=       1KiB time=00:00:00.60 bitrate=   8.4kbits/s speed=0.134x elapsed=0:00:04.49    \nframe=   40 fps=7.9 q=27.0 size=       1KiB time=00:00:00.66 bitrate=   7.6kbits/s speed=0.132x elapsed=0:00:05.05    \nframe=   44 fps=7.8 q=26.0 size=       1KiB time=00:00:00.71 bitrate=   7.1kbits/s speed=0.126x elapsed=0:00:05.66    \nframe=   47 fps=7.4 q=25.0 size=       1KiB time=00:00:00.78 bitrate=   6.5kbits/s speed=0.124x elapsed=0:00:06.33    \nframe=   49 fps=7.1 q=11.0 size=       1KiB time=00:00:00.81 bitrate=   6.2kbits/s speed=0.118x elapsed=0:00:06.93    \nframe=   52 fps=6.9 q=25.0 size=       1KiB time=00:00:00.86 bitrate=   5.8kbits/s speed=0.115x elapsed=0:00:07.52    \nframe=   56 fps=6.9 q=28.0 size=       1KiB time=00:00:00.93 bitrate=   5.4kbits/s speed=0.115x elapsed=0:00:08.09    \nframe=   60 fps=6.9 q=29.0 size=       1KiB time=00:00:01.00 bitrate=   5.1kbits/s speed=0.116x elapsed=0:00:08.65    \nframe=   64 fps=6.9 q=25.0 size=       1KiB time=00:00:01.05 bitrate=   4.8kbits/s speed=0.114x elapsed=0:00:09.21    \nframe=   68 fps=6.9 q=26.0 size=       1KiB time=00:00:01.13 bitrate=   4.5kbits/s speed=0.115x elapsed=0:00:09.84    \nframe=   72 fps=6.9 q=26.0 size=       1KiB time=00:00:01.18 bitrate=   4.3kbits/s speed=0.114x elapsed=0:00:10.41    \nframe=   74 fps=6.7 q=25.0 size=       1KiB time=00:00:01.23 bitrate=   4.1kbits/s speed=0.112x elapsed=0:00:11.02    \nframe=   78 fps=6.7 q=27.0 size=       1KiB time=00:00:01.30 bitrate=   3.9kbits/s speed=0.112x elapsed=0:00:11.57    \nframe=   81 fps=6.6 q=28.0 size=       1KiB time=00:00:01.35 bitrate=   3.8kbits/s speed=0.11x elapsed=0:00:12.23    \nframe=   84 fps=6.6 q=27.0 size=       1KiB time=00:00:01.40 bitrate=   3.6kbits/s speed=0.11x elapsed=0:00:12.77    \nframe=   88 fps=6.6 q=31.0 size=       1KiB time=00:00:01.46 bitrate=   3.5kbits/s speed=0.11x elapsed=0:00:13.36    \nframe=   92 fps=6.6 q=31.0 size=       1KiB time=00:00:01.53 bitrate=   3.3kbits/s speed=0.11x elapsed=0:00:13.92    \nframe=   96 fps=6.6 q=31.0 size=       1KiB time=00:00:01.60 bitrate=   3.2kbits/s speed=0.11x elapsed=0:00:14.58    \nframe=   98 fps=6.4 q=22.0 size=       1KiB time=00:00:01.63 bitrate=   3.1kbits/s speed=0.107x elapsed=0:00:15.27    \nframe=  101 fps=6.4 q=24.0 size=       1KiB time=00:00:01.68 bitrate=   3.0kbits/s speed=0.106x elapsed=0:00:15.83    \nframe=  104 fps=6.4 q=25.0 size=       1KiB time=00:00:01.73 bitrate=   2.9kbits/s speed=0.106x elapsed=0:00:16.37    \nframe=  108 fps=6.4 q=26.0 size=       1KiB time=00:00:01.80 bitrate=   2.8kbits/s speed=0.106x elapsed=0:00:16.91    \nframe=  111 fps=6.3 q=24.0 size=       1KiB time=00:00:01.85 bitrate=   2.7kbits/s speed=0.106x elapsed=0:00:17.50    \nframe=  114 fps=6.3 q=35.0 size=       1KiB time=00:00:01.90 bitrate=   2.7kbits/s speed=0.105x elapsed=0:00:18.07    \nframe=  118 fps=6.3 q=36.0 size=       1KiB time=00:00:01.96 bitrate=   2.6kbits/s speed=0.105x elapsed=0:00:18.68    \nframe=  120 fps=6.2 q=23.0 size=       1KiB time=00:00:02.00 bitrate=   2.5kbits/s speed=0.104x elapsed=0:00:19.24    \nframe=  123 fps=6.2 q=25.0 size=       1KiB time=00:00:02.05 bitrate=   2.5kbits/s speed=0.104x elapsed=0:00:19.80    \nframe=  126 fps=6.2 q=26.0 size=       1KiB time=00:00:02.10 bitrate=   2.4kbits/s speed=0.103x elapsed=0:00:20.32    \nframe=  128 fps=6.1 q=25.0 size=       1KiB time=00:00:02.13 bitrate=   2.4kbits/s speed=0.102x elapsed=0:00:20.91    \nframe=  131 fps=6.1 q=23.0 size=    2048KiB time=00:00:02.18 bitrate=7684.2kbits/s speed=0.102x elapsed=0:00:21.50    \nframe=  134 fps=6.1 q=26.0 size=    2048KiB time=00:00:02.23 bitrate=7512.2kbits/s speed=0.101x elapsed=0:00:22.11    \nframe=  138 fps=6.1 q=28.0 size=    2048KiB time=00:00:02.30 bitrate=7294.4kbits/s speed=0.102x elapsed=0:00:22.64    \nframe=  141 fps=6.1 q=28.0 size=    2048KiB time=00:00:02.33 bitrate=7190.2kbits/s speed=0.101x elapsed=0:00:23.16    \nframe=  144 fps=6.0 q=25.0 size=    2048KiB time=00:00:02.38 bitrate=7039.4kbits/s speed=0.0999x elapsed=0:00:23.86    \nframe=  147 fps=6.0 q=27.0 size=    2048KiB time=00:00:02.45 bitrate=6847.8kbits/s speed= 0.1x elapsed=0:00:24.46    \nframe=  151 fps=6.0 q=30.0 size=    2048KiB time=00:00:02.51 bitrate=6666.4kbits/s speed= 0.1x elapsed=0:00:25.04    \nframe=  155 fps=6.1 q=25.0 size=    2048KiB time=00:00:02.56 bitrate=6536.6kbits/s speed= 0.1x elapsed=0:00:25.61    \nframe=  158 fps=6.0 q=25.0 size=    2048KiB time=00:00:02.63 bitrate=6371.1kbits/s speed= 0.1x elapsed=0:00:26.23    \nframe=  162 fps=6.0 q=27.0 size=    2048KiB time=00:00:02.70 bitrate=6213.8kbits/s speed=0.101x elapsed=0:00:26.83    \nframe=  165 fps=6.0 q=28.0 size=    2048KiB time=00:00:02.75 bitrate=6100.8kbits/s speed= 0.1x elapsed=0:00:27.39    \nframe=  169 fps=6.0 q=27.0 size=    2048KiB time=00:00:02.81 bitrate=5956.4kbits/s speed=0.101x elapsed=0:00:27.94    \nframe=  171 fps=6.0 q=28.0 size=    2048KiB time=00:00:02.85 bitrate=5886.7kbits/s speed=0.0999x elapsed=0:00:28.52    \nframe=  175 fps=6.0 q=31.0 size=    2048KiB time=00:00:02.91 bitrate=5752.2kbits/s speed= 0.1x elapsed=0:00:29.13    \nframe=  177 fps=5.9 q=31.0 size=    2048KiB time=00:00:02.95 bitrate=5687.2kbits/s speed=0.0991x elapsed=0:00:29.76    \nframe=  181 fps=6.0 q=33.0 size=    2048KiB time=00:00:03.01 bitrate=5561.5kbits/s speed=0.0996x elapsed=0:00:30.29    \nframe=  185 fps=6.0 q=30.0 size=    2048KiB time=00:00:03.08 bitrate=5441.3kbits/s speed=0.0999x elapsed=0:00:30.85    \nframe=  187 fps=6.0 q=35.0 size=    2048KiB time=00:00:03.11 bitrate=5383.1kbits/s speed=0.0994x elapsed=0:00:31.37    \nframe=  191 fps=6.0 q=25.0 size=    2048KiB time=00:00:03.16 bitrate=5298.1kbits/s speed=0.0992x elapsed=0:00:31.92    \nframe=  195 fps=6.0 q=36.0 size=    2048KiB time=00:00:03.25 bitrate=5162.2kbits/s speed=0.0999x elapsed=0:00:32.54    \nframe=  199 fps=6.0 q=37.0 size=    2048KiB time=00:00:03.31 bitrate=5058.5kbits/s speed= 0.1x elapsed=0:00:33.09    \nframe=  201 fps=6.0 q=37.0 size=    2048KiB time=00:00:03.35 bitrate=5008.1kbits/s speed=0.0995x elapsed=0:00:33.67    \nframe=  204 fps=6.0 q=27.0 size=    2048KiB time=00:00:03.40 bitrate=4934.5kbits/s speed=0.0992x elapsed=0:00:34.25    \nframe=  208 fps=6.0 q=27.0 size=    2048KiB time=00:00:03.46 bitrate=4839.6kbits/s speed=0.0996x elapsed=0:00:34.81    \nframe=  211 fps=6.0 q=25.0 size=    2048KiB time=00:00:03.51 bitrate=4770.8kbits/s speed=0.0995x elapsed=0:00:35.33    \nframe=  214 fps=6.0 q=25.0 size=    2048KiB time=00:00:03.56 bitrate=4703.9kbits/s speed=0.0992x elapsed=0:00:35.96    \nframe=  217 fps=5.9 q=33.0 size=    2048KiB time=00:00:03.61 bitrate=4638.9kbits/s speed=0.0991x elapsed=0:00:36.49    \nframe=  221 fps=6.0 q=35.0 size=    2048KiB time=00:00:03.68 bitrate=4554.9kbits/s speed=0.0995x elapsed=0:00:37.03    \nframe=  225 fps=6.0 q=27.0 size=    2048KiB time=00:00:03.73 bitrate=4493.9kbits/s speed=0.0994x elapsed=0:00:37.56    \nframe=  229 fps=6.0 q=25.0 size=    2048KiB time=00:00:03.81 bitrate=4395.8kbits/s speed=0.0999x elapsed=0:00:38.21    \nframe=  231 fps=6.0 q=25.0 size=    2048KiB time=00:00:03.85 bitrate=4357.7kbits/s speed=0.0993x elapsed=0:00:38.75    \nframe=  235 fps=6.0 q=26.0 size=    2048KiB time=00:00:03.91 bitrate=4283.5kbits/s speed=0.0996x elapsed=0:00:39.32    \nframe=  238 fps=6.0 q=23.0 size=    2048KiB time=00:00:03.96 bitrate=4229.5kbits/s speed=0.0993x elapsed=0:00:39.94    \nframe=  243 fps=6.0 q=30.0 size=    2048KiB time=00:00:04.05 bitrate=4142.5kbits/s speed= 0.1x elapsed=0:00:40.46    \nframe=  247 fps=6.0 q=23.0 size=    2048KiB time=00:00:04.11 bitrate=4075.4kbits/s speed= 0.1x elapsed=0:00:41.03    \nframe=  252 fps=6.1 q=28.0 size=    2048KiB time=00:00:04.20 bitrate=3994.6kbits/s speed=0.101x elapsed=0:00:41.59    \nframe=  255 fps=6.0 q=29.0 size=    2048KiB time=00:00:04.25 bitrate=3947.6kbits/s speed=0.101x elapsed=0:00:42.21    \nframe=  257 fps=6.0 q=14.0 size=    2048KiB time=00:00:04.28 bitrate=3916.9kbits/s speed= 0.1x elapsed=0:00:42.76    \nframe=  261 fps=6.0 q=21.0 size=    4096KiB time=00:00:04.35 bitrate=7713.7kbits/s speed= 0.1x elapsed=0:00:43.32    \nframe=  265 fps=6.0 q=25.0 size=    4096KiB time=00:00:04.41 bitrate=7597.2kbits/s speed=0.101x elapsed=0:00:43.88    \nframe=  269 fps=6.1 q=13.0 size=    4096KiB time=00:00:04.48 bitrate=7484.3kbits/s speed=0.101x elapsed=0:00:44.43    \nframe=  272 fps=6.0 q=26.0 size=    4096KiB time=00:00:04.51 bitrate=7429.0kbits/s speed= 0.1x elapsed=0:00:44.96    \nframe=  275 fps=6.0 q=27.0 size=    4096KiB time=00:00:04.56 bitrate=7347.7kbits/s speed= 0.1x elapsed=0:00:45.53    \nframe=  276 fps=6.0 q=28.0 size=    4096KiB time=00:00:04.60 bitrate=7294.4kbits/s speed=0.0997x elapsed=0:00:46.13    \nframe=  276 fps=5.9 q=28.0 size=    4096KiB time=00:00:04.60 bitrate=7294.4kbits/s speed=0.0986x elapsed=0:00:46.66    \nframe=  276 fps=5.8 q=28.0 size=    4096KiB time=00:00:04.60 bitrate=7294.4kbits/s speed=0.0975x elapsed=0:00:47.18    \nframe=  276 fps=5.8 q=28.0 size=    4096KiB time=00:00:04.60 bitrate=7294.4kbits/s speed=0.0963x elapsed=0:00:47.78    \nframe=  276 fps=5.7 q=28.0 size=    4096KiB time=00:00:04.60 bitrate=7294.4kbits/s speed=0.095x elapsed=0:00:48.41    \nframe=  276 fps=5.6 q=28.0 size=    4096KiB time=00:00:04.60 bitrate=7294.4kbits/s speed=0.0939x elapsed=0:00:49.00    \n[out#0/webm @ 0000018b659d1580] video:5128KiB audio:0KiB subtitle:0KiB other streams:0KiB global headers:0KiB muxing overhead: 0.054861%\nframe=  300 fps=6.1 q=36.0 Lsize=    5131KiB time=00:00:05.00 bitrate=8406.9kbits/s speed=0.101x elapsed=0:00:49.49    \n",
  "seconds": 49.816635608673096,
  "probe_out": {}
}